<?xml version="1.0" encoding="utf-8"?>
<svg width="300" height="100" viewBox="0 0 300 100" fill="none" xmlns="http://www.w3.org/2000/svg">
  <g filter="url(#filter0_b)">
    <rect width="300" height="100" rx="20" fill="white" fill-opacity="0.8"/>
  </g>
  <rect x="28" y="25" width="50" height="50" rx="8" fill="#23BDEE"/>
  <defs>
    <filter id="filter0_b" x="-20" y="-20" width="340" height="140" filterUnits="userSpaceOnUse" color-interpolation-filters="sRGB">
      <feFlood flood-opacity="0" result="BackgroundImageFix"/>
      <feGaussianBlur in="BackgroundImage" stdDeviation="10"/>
      <feComposite in2="SourceAlpha" operator="in" result="effect1_backgroundBlur"/>
      <feBlend mode="normal" in="SourceGraphic" in2="effect1_backgroundBlur" result="shape"/>
    </filter>
  </defs>
  <g id="SVGRepo_bgCarrier" stroke-width="0" transform="matrix(1.354973, 0, 0, 1.442799, 38.140698, 33.574952)" style=""/>
  <g id="SVGRepo_tracerCarrier" stroke-linecap="round" stroke-linejoin="round" transform="matrix(1.354973, 0, 0, 1.442799, 38.140698, 33.574952)" style=""/>
  <g id="SVGRepo_iconCarrier" transform="matrix(1.354973, 0, 0, 1.442799, 38.140698, 33.574952)" style="">
    <path d="M20.1498 7.93997L8.27978 19.81C7.21978 20.88 4.04977 21.3699 3.32977 20.6599C2.60977 19.9499 3.11978 16.78 4.17978 15.71L16.0498 3.84C16.5979 3.31801 17.3283 3.03097 18.0851 3.04019C18.842 3.04942 19.5652 3.35418 20.1004 3.88938C20.6356 4.42457 20.9403 5.14781 20.9496 5.90463C20.9588 6.66146 20.6718 7.39189 20.1498 7.93997V7.93997Z" stroke="#ffffff" stroke-width="1.5" stroke-linecap="round" stroke-linejoin="round"/>
  </g>
  <text style="white-space: pre; fill: rgb(51, 51, 51); font-family: Arial, sans-serif; font-size: 28px;" x="151.521" y="27.507"> </text>
  <text style="white-space: pre; fill: rgb(51, 51, 51); font-family: Arial, sans-serif; font-size: 28px;" x="132.085" y="13.986"> </text>
  <text style="fill: rgb(51, 51, 51); font-family: Arial, sans-serif; font-size: 19px; white-space: pre;" x="110.026" y="55.395" transform="matrix(1.200086, 0, 0, 1.198413, -22.352738, -10.105761)">Edit Unlimited </text>
</svg>