<?xml version="1.0" encoding="utf-8"?>
<svg width="300" height="100" viewBox="0 0 300 100" fill="none" xmlns="http://www.w3.org/2000/svg">
  <g filter="url(#filter0_b)">
    <rect width="300" height="100" rx="20" fill="white" fill-opacity="0.8"/>
  </g>
  <rect x="28" y="25" width="50" height="50" rx="8" style="fill: rgb(179, 35, 238);"/>
  <defs>
    <filter id="filter0_b" x="-20" y="-20" width="340" height="140" filterUnits="userSpaceOnUse" color-interpolation-filters="sRGB">
      <feFlood flood-opacity="0" result="BackgroundImageFix"/>
      <feGaussianBlur in="BackgroundImage" stdDeviation="10"/>
      <feComposite in2="SourceAlpha" operator="in" result="effect1_backgroundBlur"/>
      <feBlend mode="normal" in="SourceGraphic" in2="effect1_backgroundBlur" result="shape"/>
    </filter>
  </defs>
  <g id="SVGRepo_bgCarrier" stroke-width="0" transform="matrix(1.354973, 0, 0, 1.442799, 38.140698, 33.574952)" style=""/>
  <g id="SVGRepo_tracerCarrier" stroke-linecap="round" stroke-linejoin="round" transform="matrix(1.354973, 0, 0, 1.442799, 38.140698, 33.574952)" style=""/>
  <text style="white-space: pre; fill: rgb(51, 51, 51); font-family: Arial, sans-serif; font-size: 28px;" x="151.521" y="27.507"> </text>
  <text style="white-space: pre; fill: rgb(51, 51, 51); font-family: Arial, sans-serif; font-size: 28px;" x="132.085" y="13.986"> </text>
  <text style="fill: rgb(51, 51, 51); font-family: Arial, sans-serif; font-size: 19px; white-space: pre;" x="110.026" y="55.395" transform="matrix(1.200086, 0, 0, 1.198413, -22.52175, -10.105761)">Multiple Device</text>
  <g id="group-1" stroke-width="0" transform="matrix(1.426983, 0, 0, 1.455603, 35.07042, 32.239438)" style=""/>
  <g id="group-2" stroke-linecap="round" stroke-linejoin="round" transform="matrix(1.426983, 0, 0, 1.455603, 35.07042, 32.239438)" style=""/>
  <g id="SVGRepo_iconCarrier" transform="matrix(1.668432, 0, 0, 1.686077, 31.665997, 29.811783)" style="">
    <path d="M12 20C12.8284 20 13.5 19.3284 13.5 18.5C13.5 17.6716 12.8284 17 12 17C11.1716 17 10.5 17.6716 10.5 18.5C10.5 19.3284 11.1716 20 12 20Z" fill="#ffffff"/>
    <path fill-rule="evenodd" clip-rule="evenodd" d="M5 20C5 21.5067 6.07616 23 7.71429 23H16.2857C17.9238 23 19 21.5067 19 20V4C19 2.49332 17.9238 1 16.2857 1H7.71429C6.07616 1 5 2.49332 5 4V20ZM7.71429 21C7.45886 21 7 20.7025 7 20V4C7 3.29754 7.45886 3 7.71429 3H16.2857C16.5411 3 17 3.29754 17 4V20C17 20.7025 16.5411 21 16.2857 21H7.71429Z" fill="#ffffff"/>
  </g>
</svg>